<?xml version="1.0" standalone="no"?>
<!DOCTYPE svg PUBLIC "-//W3C//DTD SVG 20010904//EN"
 "http://www.w3.org/TR/2001/REC-SVG-20010904/DTD/svg10.dtd">
<svg version="1.0" xmlns="http://www.w3.org/2000/svg"
 width="400.000000pt" height="400.000000pt" viewBox="0 0 400.000000 400.000000"
 preserveAspectRatio="xMidYMid meet">

<g transform="translate(0.000000,400.000000) scale(0.100000,-0.100000)"
fill="#000000" stroke="none">
<path d="M1785 3214 c-109 -63 -203 -118 -207 -122 -4 -4 6 -111 22 -237 17
-126 30 -235 30 -242 0 -12 348 -193 371 -193 8 0 406 219 427 235 1 1 -12
113 -30 249 l-32 247 -178 90 c-97 49 -183 89 -190 89 -7 -1 -103 -52 -213
-116z m485 -204 c0 -7 -378 -35 -384 -29 -3 2 23 70 57 151 l62 147 133 -132
c72 -72 132 -134 132 -137z m-362 133 c-28 -65 -54 -128 -59 -140 -8 -22 -9
-22 -109 24 -55 26 -99 50 -98 55 4 10 288 175 304 177 7 0 -11 -52 -38 -116z
m419 -17 c1 -1 -4 -23 -10 -49 l-11 -48 -98 98 c-54 54 -98 101 -98 106 0 6
152 -70 217 -107z m-605 -132 c51 -25 92 -51 90 -57 -6 -21 -145 -258 -149
-254 -2 2 -12 71 -23 153 -11 82 -22 161 -24 177 -3 15 -1 27 4 27 5 0 51 -21
102 -46z m625 -21 c-3 -10 -5 -4 -5 12 0 17 2 24 5 18 2 -7 2 -21 0 -30z m-69
-12 c-22 -59 -173 -359 -178 -356 -13 8 -213 325 -208 330 3 3 233 24 371 34
10 0 17 -3 15 -8z m97 -283 c-24 -15 -216 -80 -221 -75 -3 3 32 78 77 168 l82
164 37 -125 c26 -91 33 -127 25 -132z m-416 71 c57 -88 102 -161 100 -163 -4
-3 -370 42 -374 46 -3 5 158 278 165 278 3 0 52 -72 109 -161z m-11 -190 c61
-7 112 -15 112 -18 0 -3 -15 -23 -33 -45 l-32 -38 -110 57 c-61 32 -112 60
-115 63 -3 2 11 2 30 -1 19 -3 86 -11 148 -18z m242 7 c0 -6 -93 -57 -97 -53
-9 10 40 39 95 56 1 1 2 -1 2 -3z"/>
<path d="M307 1630 c-262 -66 -387 -394 -251 -661 75 -149 253 -229 446 -201
105 15 160 42 198 97 30 44 39 88 19 100 -6 4 -36 -9 -67 -28 -126 -77 -177
-89 -267 -62 -117 34 -184 142 -193 310 -8 168 41 288 137 338 84 42 140 34
241 -36 122 -83 121 -83 136 -62 19 26 17 103 -4 145 -12 25 -28 39 -57 49
-48 17 -283 24 -338 11z"/>
<path d="M1926 1625 c-167 -59 -211 -270 -80 -385 19 -17 86 -56 147 -87 161
-80 197 -114 197 -183 0 -68 -53 -110 -139 -110 -73 0 -99 14 -173 91 -51 54
-73 70 -90 67 -21 -3 -23 -9 -26 -72 -3 -81 10 -122 47 -140 41 -21 159 -39
253 -39 78 0 94 3 153 32 77 38 117 86 135 162 16 66 6 128 -30 177 -40 56
-78 82 -216 150 -137 68 -174 102 -174 160 1 63 47 102 122 102 47 0 61 -8
151 -82 66 -54 93 -60 103 -23 11 43 -1 133 -20 154 -10 11 -40 25 -67 30 -71
15 -246 13 -293 -4z"/>
<path d="M2565 1634 c-105 -8 -115 -12 -115 -44 0 -24 8 -35 39 -54 39 -25 39
-26 47 -103 4 -43 4 -140 1 -215 -9 -221 11 -300 99 -377 66 -58 130 -75 258
-69 113 5 168 24 228 77 76 67 98 169 98 470 l0 164 41 44 c69 75 39 103 -112
103 -121 0 -132 -9 -95 -73 19 -32 30 -70 37 -133 14 -108 6 -383 -13 -438
-46 -141 -257 -166 -330 -40 -28 48 -41 192 -35 370 5 145 8 169 32 229 20 50
24 70 16 78 -12 12 -110 17 -196 11z"/>
<path d="M3575 1628 c-95 -36 -152 -102 -162 -186 -15 -129 41 -198 242 -301
143 -73 175 -104 175 -170 0 -69 -53 -111 -139 -111 -72 0 -95 12 -169 90 -66
71 -103 88 -116 54 -11 -29 -6 -124 8 -159 12 -28 23 -36 68 -50 29 -8 91 -20
138 -25 215 -24 358 59 377 218 14 125 -46 198 -244 297 -140 70 -183 106
-183 155 0 69 45 110 120 110 51 0 68 -9 148 -77 92 -77 112 -71 112 32 0 66
-14 99 -49 115 -35 17 -286 23 -326 8z"/>
<path d="M1152 1607 c-23 -24 -43 -78 -86 -235 -14 -51 -58 -175 -98 -275 -63
-161 -77 -188 -121 -235 -48 -50 -50 -54 -34 -70 14 -13 41 -17 127 -20 127
-5 133 0 106 71 -37 97 -6 185 69 199 52 9 144 10 185 2 61 -13 95 -111 66
-192 -8 -23 -13 -49 -10 -57 9 -21 84 -29 196 -19 80 7 103 13 112 27 9 15 4
24 -35 60 -34 31 -52 60 -72 112 -15 39 -60 160 -102 270 -86 228 -121 307
-160 353 -23 28 -33 32 -74 32 -37 0 -52 -5 -69 -23z m113 -316 c25 -67 45
-128 45 -135 0 -17 -44 -26 -120 -26 -71 0 -90 7 -90 31 0 16 35 115 90 254
14 37 15 37 75 -124z"/>
</g>
</svg>
